<?xml version="1.0" encoding="utf-8"?>
<svg version="1.1" xmlns="http://www.w3.org/2000/svg" xmlns:xlink="http://www.w3.org/1999/xlink" x="0px" y="0px" viewBox="0 0 30 30" enable-background="new 0 0 30 30" xml:space="preserve">
	<path fill-rule="evenodd" clip-rule="evenodd" fill="#FFFFFF" d="M26.3,23.3c-0.4,0.6-1,1.2-1.5,1.7c-0.5,0.5-1,0.9-1.6,1.2
	c-1.4,0.7-2.9,1-4.5,0.8c-2.2-0.2-4.3-1.2-6.1-2.4c-1.4-0.9-2.8-2-4-3.2c-2-1.9-3.7-4.2-4.7-6.8C3,12.2,2.6,9.6,3.6,7.2
	c0.7-1.5,1.9-2.6,3.1-3.6C7,3.5,7.3,3.2,7.7,3.1C8,3,8.3,3,8.5,3.1c0.6,0.3,1.2,0.8,1.6,1.4c0.4,0.6,0.7,1.2,1,1.9
	c0.3,0.7,0.6,1.3,0.6,2.1c0,0.6-0.2,1-0.6,1.4c-0.4,0.4-0.8,0.8-1.1,1.3c-0.8,1.1-1.2,2.4-1.3,3.7c0,1.7,0.7,3.5,1.8,4.7
	c2,1.9,5.2,2.4,7.6,1.2c0.5-0.3,1-0.7,1.5-1.1c0.3-0.3,0.6-0.7,1-1c1.1-0.8,2.5,0,3.6,0.5c0.7,0.3,1.3,0.7,1.9,1.3
	c0.5,0.4,1.1,1.1,1,1.8C27,22.6,26.6,22.9,26.3,23.3z"/>
</svg>
