<?xml version="1.0" encoding="utf-8"?>
<svg version="1.1" xmlns="http://www.w3.org/2000/svg" xmlns:xlink="http://www.w3.org/1999/xlink" x="0px" y="0px" viewBox="0 0 20 20" enable-background="new 0 0 20 20" xml:space="preserve">
	<path fill-rule="evenodd" clip-rule="evenodd" fill="#BABABA" d="M15.2,13.8c-0.2,0.3-0.5,0.5-0.7,0.8c-0.2,0.2-0.4,0.4-0.7,0.5
	c-0.6,0.3-1.4,0.4-2.1,0.4c-1-0.1-2-0.5-2.8-1.1c-0.7-0.4-1.3-0.9-1.8-1.5C6.2,12,5.4,11,4.9,9.8c-0.4-1-0.6-2.3-0.2-3.3
	c0.3-0.7,0.9-1.2,1.4-1.6c0.1-0.1,0.3-0.2,0.4-0.3c0.1,0,0.3,0,0.4,0c0.3,0.1,0.5,0.4,0.7,0.6C7.9,5.4,8.1,5.7,8.2,6
	C8.3,6.3,8.5,6.7,8.5,7c0,0.3-0.1,0.5-0.3,0.6C8,7.8,7.8,8,7.7,8.2C7.3,8.7,7.1,9.3,7.1,9.9c0,0.8,0.3,1.6,0.8,2.1
	c0.9,0.9,2.4,1.1,3.5,0.5c0.3-0.1,0.5-0.3,0.7-0.5c0.1-0.2,0.3-0.3,0.4-0.5c0.5-0.3,1.2,0,1.6,0.2c0.3,0.2,0.6,0.3,0.9,0.6
	c0.2,0.2,0.5,0.5,0.5,0.8C15.5,13.5,15.3,13.6,15.2,13.8z"/>
</svg>
